<svg class="main-svg" xmlns="http://www.w3.org/2000/svg" xmlns:xlink="http://www.w3.org/1999/xlink" width="700" height="500" style="" viewBox="0 0 700 500"><rect x="0" y="0" width="700" height="500" style="fill: rgb(255, 255, 255); fill-opacity: 1;"/><defs id="defs-2f7add"><g class="clips"><clipPath id="clip2f7addxyplot" class="plotclip"><rect width="659.7025371828521" height="438.167104111986"/></clipPath><clipPath class="axesclip" id="clip2f7addx"><rect x="35.70428696412949" y="0" width="659.7025371828521" height="500"/></clipPath><clipPath class="axesclip" id="clip2f7addy"><rect x="0" y="24.527559055118104" width="700" height="438.167104111986"/></clipPath><clipPath class="axesclip" id="clip2f7addxy"><rect x="35.70428696412949" y="24.527559055118104" width="659.7025371828521" height="438.167104111986"/></clipPath></g><g class="gradients"/></defs><g class="bglayer"/><g class="layer-below"><g class="imagelayer"/><g class="shapelayer"/></g><g class="cartesianlayer"><g class="subplot xy"><g class="layer-subplot"><g class="shapelayer"/><g class="imagelayer"/></g><g class="gridlayer"><g class="x"><path class="xgrid crisp" transform="translate(68.40428696412948,0)" d="M0,24.527559055118104v438.167104111986" style="stroke: rgb(0, 0, 0); stroke-opacity: 0.1; stroke-width: 0.5px;"/><path class="xgrid crisp" transform="translate(167.4542869641295,0)" d="M0,24.527559055118104v438.167104111986" style="stroke: rgb(0, 0, 0); stroke-opacity: 0.1; stroke-width: 0.5px;"/><path class="xgrid crisp" transform="translate(266.5042869641295,0)" d="M0,24.527559055118104v438.167104111986" style="stroke: rgb(0, 0, 0); stroke-opacity: 0.1; stroke-width: 0.5px;"/><path class="xgrid crisp" transform="translate(365.5542869641295,0)" d="M0,24.527559055118104v438.167104111986" style="stroke: rgb(0, 0, 0); stroke-opacity: 0.1; stroke-width: 0.5px;"/><path class="xgrid crisp" transform="translate(464.60428696412947,0)" d="M0,24.527559055118104v438.167104111986" style="stroke: rgb(0, 0, 0); stroke-opacity: 0.1; stroke-width: 0.5px;"/><path class="xgrid crisp" transform="translate(563.6542869641295,0)" d="M0,24.527559055118104v438.167104111986" style="stroke: rgb(0, 0, 0); stroke-opacity: 0.1; stroke-width: 0.5px;"/><path class="xgrid crisp" transform="translate(662.7142869641294,0)" d="M0,24.527559055118104v438.167104111986" style="stroke: rgb(0, 0, 0); stroke-opacity: 0.1; stroke-width: 0.5px;"/></g><g class="y"><path class="ygrid crisp" transform="translate(0,450.2975590551181)" d="M35.70428696412949,0h659.7025371828521" style="stroke: rgb(0, 0, 0); stroke-opacity: 0.1; stroke-width: 0.5px;"/><path class="ygrid crisp" transform="translate(0,346.9475590551181)" d="M35.70428696412949,0h659.7025371828521" style="stroke: rgb(0, 0, 0); stroke-opacity: 0.1; stroke-width: 0.5px;"/><path class="ygrid crisp" transform="translate(0,243.60755905511812)" d="M35.70428696412949,0h659.7025371828521" style="stroke: rgb(0, 0, 0); stroke-opacity: 0.1; stroke-width: 0.5px;"/><path class="ygrid crisp" transform="translate(0,140.2675590551181)" d="M35.70428696412949,0h659.7025371828521" style="stroke: rgb(0, 0, 0); stroke-opacity: 0.1; stroke-width: 0.5px;"/><path class="ygrid crisp" transform="translate(0,36.9275590551181)" d="M35.70428696412949,0h659.7025371828521" style="stroke: rgb(0, 0, 0); stroke-opacity: 0.1; stroke-width: 0.5px;"/></g></g><g class="zerolinelayer"/><path class="xlines-below"/><path class="ylines-below"/><g class="overlines-below"/><g class="xaxislayer-below"/><g class="yaxislayer-below"/><g class="overaxes-below"/><g class="plot" transform="translate(35.70428696412949,24.527559055118104)" clip-path="url('#clip2f7addxyplot')"><g class="scatterlayer mlayer"><g class="trace scatter trace672b48" style="stroke-miterlimit: 2; opacity: 1;"><g class="fills"/><g class="errorbars"/><g class="lines"><path class="js-line" d="M18.67,219.08L40.45,131.08L41.08,128.74L52.28,89.35L52.9,87.34L62.24,59.83L62.86,58.19L70.33,40.53L70.95,39.23L77.8,26.91L78.42,25.97L84.02,18.89L84.64,18.26L89.62,14.37L90.24,14.03L94.6,12.55L95.22,12.47L99.58,12.81L100.2,12.99L104.56,15.15L105.18,15.59L110.16,20.25L110.78,20.97L116.38,28.89L117,29.92L123.23,41.85L123.85,43.2L131.32,61.5L131.94,63.19L140.65,89.35L141.28,91.38L151.86,128.74L152.48,131.08L168.04,193.18L168.66,195.76L197.29,311.76L197.91,314.07L209.11,352.82L209.74,354.79L218.45,379.98L219.07,381.6L226.54,398.94L227.16,400.2L233.39,411.25L234.01,412.19L239.61,419.27L240.23,419.9L245.21,423.79L245.83,424.14L250.19,425.62L250.81,425.7L255.17,425.36L255.79,425.18L260.15,423.01L260.77,422.58L265.75,417.92L266.37,417.19L271.97,409.28L272.59,408.25L278.82,396.32L279.44,394.97L286.91,376.67L287.53,374.97L296.24,348.82L296.87,346.78L307.45,309.43L308.07,307.08L323.01,247.56L323.63,244.99L352.88,126.41L353.5,124.1L364.7,85.35L365.33,83.38L374.04,58.19L374.66,56.57L382.13,39.23L382.75,37.97L388.98,26.91L389.6,25.97L395.2,18.89L395.82,18.26L400.8,14.37L401.42,14.03L405.78,12.55L406.4,12.47L410.76,12.81L411.38,12.99L415.74,15.15L416.36,15.59L421.34,20.25L421.96,20.97L427.56,28.89L428.18,29.92L434.41,41.85L435.03,43.2L442.5,61.5L443.12,63.19L451.83,89.35L452.46,91.38L463.04,128.74L463.66,131.08L479.22,193.18L479.84,195.76L508.47,311.76L509.09,314.07L520.29,352.82L520.92,354.79L529.63,379.98L530.25,381.6L537.72,398.94L538.34,400.2L544.57,411.25L545.19,412.19L550.79,419.27L551.41,419.9L556.39,423.79L557.01,424.14L561.37,425.62L561.99,425.7L566.35,425.36L566.97,425.18L571.33,423.01L571.95,422.58L576.93,417.92L577.55,417.19L583.15,409.28L583.77,408.25L590,396.32L590.62,394.97L598.09,376.67L598.71,374.97L607.42,348.82L608.05,346.78L618.63,309.43L619.25,307.08L634.19,247.56L634.81,244.99L641.03,219.08" style="vector-effect: non-scaling-stroke; fill: none; stroke: rgb(255, 0, 0); stroke-opacity: 1; stroke-width: 1px; opacity: 1;"/></g><g class="points"/><g class="text"/></g></g></g><g class="overplot"/><path class="xlines-above crisp" d="M34.70428696412949,463.1946631671041H695.4068241469815" style="fill: none; stroke-width: 1px; stroke: rgb(0, 0, 0); stroke-opacity: 1;"/><path class="ylines-above crisp" d="M35.20428696412949,24.527559055118104V462.6946631671041" style="fill: none; stroke-width: 1px; stroke: rgb(0, 0, 0); stroke-opacity: 1;"/><g class="overlines-above"/><g class="xaxislayer-above"><path class="xtick ticks crisp" d="M0,462.6946631671041v-5" transform="translate(68.40428696412948,0)" style="stroke: rgb(0, 0, 0); stroke-opacity: 1; stroke-width: 1px;"/><path class="xtick ticks crisp" d="M0,462.6946631671041v-5" transform="translate(167.4542869641295,0)" style="stroke: rgb(0, 0, 0); stroke-opacity: 1; stroke-width: 1px;"/><path class="xtick ticks crisp" d="M0,462.6946631671041v-5" transform="translate(266.5042869641295,0)" style="stroke: rgb(0, 0, 0); stroke-opacity: 1; stroke-width: 1px;"/><path class="xtick ticks crisp" d="M0,462.6946631671041v-5" transform="translate(365.5542869641295,0)" style="stroke: rgb(0, 0, 0); stroke-opacity: 1; stroke-width: 1px;"/><path class="xtick ticks crisp" d="M0,462.6946631671041v-5" transform="translate(464.60428696412947,0)" style="stroke: rgb(0, 0, 0); stroke-opacity: 1; stroke-width: 1px;"/><path class="xtick ticks crisp" d="M0,462.6946631671041v-5" transform="translate(563.6542869641295,0)" style="stroke: rgb(0, 0, 0); stroke-opacity: 1; stroke-width: 1px;"/><path class="xtick ticks crisp" d="M0,462.6946631671041v-5" transform="translate(662.7142869641294,0)" style="stroke: rgb(0, 0, 0); stroke-opacity: 1; stroke-width: 1px;"/><g class="xtick"><text text-anchor="middle" x="0" y="476.8946631671041" transform="translate(68.40428696412948,0)" style="font-family: sans-serif; font-size: 11px; fill: rgb(0, 0, 0); fill-opacity: 1; white-space: pre;">-3</text></g><g class="xtick"><text text-anchor="middle" x="0" y="476.8946631671041" transform="translate(167.4542869641295,0)" style="font-family: sans-serif; font-size: 11px; fill: rgb(0, 0, 0); fill-opacity: 1; white-space: pre;">-2</text></g><g class="xtick"><text text-anchor="middle" x="0" y="476.8946631671041" transform="translate(266.5042869641295,0)" style="font-family: sans-serif; font-size: 11px; fill: rgb(0, 0, 0); fill-opacity: 1; white-space: pre;">-1</text></g><g class="xtick"><text text-anchor="middle" x="0" y="476.8946631671041" transform="translate(365.5542869641295,0)" style="font-family: sans-serif; font-size: 11px; fill: rgb(0, 0, 0); fill-opacity: 1; white-space: pre;">0</text></g><g class="xtick"><text text-anchor="middle" x="0" y="476.8946631671041" transform="translate(464.60428696412947,0)" style="font-family: sans-serif; font-size: 11px; fill: rgb(0, 0, 0); fill-opacity: 1; white-space: pre;">1</text></g><g class="xtick"><text text-anchor="middle" x="0" y="476.8946631671041" transform="translate(563.6542869641295,0)" style="font-family: sans-serif; font-size: 11px; fill: rgb(0, 0, 0); fill-opacity: 1; white-space: pre;">2</text></g><g class="xtick"><text text-anchor="middle" x="0" y="476.8946631671041" transform="translate(662.7142869641294,0)" style="font-family: sans-serif; font-size: 11px; fill: rgb(0, 0, 0); fill-opacity: 1; white-space: pre;">3</text></g></g><g class="yaxislayer-above"><path class="ytick ticks crisp" d="M35.70428696412949,0h5" transform="translate(0,450.2975590551181)" style="stroke: rgb(0, 0, 0); stroke-opacity: 1; stroke-width: 1px;"/><path class="ytick ticks crisp" d="M35.70428696412949,0h5" transform="translate(0,346.9475590551181)" style="stroke: rgb(0, 0, 0); stroke-opacity: 1; stroke-width: 1px;"/><path class="ytick ticks crisp" d="M35.70428696412949,0h5" transform="translate(0,243.60755905511812)" style="stroke: rgb(0, 0, 0); stroke-opacity: 1; stroke-width: 1px;"/><path class="ytick ticks crisp" d="M35.70428696412949,0h5" transform="translate(0,140.2675590551181)" style="stroke: rgb(0, 0, 0); stroke-opacity: 1; stroke-width: 1px;"/><path class="ytick ticks crisp" d="M35.70428696412949,0h5" transform="translate(0,36.9275590551181)" style="stroke: rgb(0, 0, 0); stroke-opacity: 1; stroke-width: 1px;"/><g class="ytick"><text text-anchor="end" x="32.504286964129484" y="3.8499999999999996" transform="translate(0,450.2975590551181)" style="font-family: sans-serif; font-size: 11px; fill: rgb(0, 0, 0); fill-opacity: 1; white-space: pre;">0.0</text></g><g class="ytick"><text text-anchor="end" x="32.504286964129484" y="3.8499999999999996" transform="translate(0,346.9475590551181)" style="font-family: sans-serif; font-size: 11px; fill: rgb(0, 0, 0); fill-opacity: 1; white-space: pre;">0.5</text></g><g class="ytick"><text text-anchor="end" x="32.504286964129484" y="3.8499999999999996" transform="translate(0,243.60755905511812)" style="font-family: sans-serif; font-size: 11px; fill: rgb(0, 0, 0); fill-opacity: 1; white-space: pre;">1.0</text></g><g class="ytick"><text text-anchor="end" x="32.504286964129484" y="3.8499999999999996" transform="translate(0,140.2675590551181)" style="font-family: sans-serif; font-size: 11px; fill: rgb(0, 0, 0); fill-opacity: 1; white-space: pre;">1.5</text></g><g class="ytick"><text text-anchor="end" x="32.504286964129484" y="3.8499999999999996" transform="translate(0,36.9275590551181)" style="font-family: sans-serif; font-size: 11px; fill: rgb(0, 0, 0); fill-opacity: 1; white-space: pre;">2.0</text></g></g><g class="overaxes-above"/></g></g><g class="polarlayer"/><g class="ternarylayer"/><g class="geolayer"/><g class="funnelarealayer"/><g class="pielayer"/><g class="treemaplayer"/><g class="sunburstlayer"/><g class="glimages"/><defs id="topdefs-2f7add"><g class="clips"/><clipPath id="legend2f7add"><rect width="57" height="29" x="1" y="1"/></clipPath></defs><g class="layer-above"><g class="imagelayer"/><g class="shapelayer"/></g><g class="infolayer"><g class="legend" pointer-events="all" transform="translate(641,20)"><rect class="bg" shape-rendering="crispEdges" style="stroke: rgb(0, 0, 0); stroke-opacity: 1; fill: rgb(255, 255, 255); fill-opacity: 1; stroke-width: 1px;" width="58" height="30" x="0.5" y="0.5"/><g class="scrollbox" transform="" clip-path="url('#legend2f7add')"><g class="groups"><g class="traces" transform="translate(1,15.5)" style="opacity: 1;"><text class="legendtext" text-anchor="start" x="40" y="4.29" style="font-family: sans-serif; font-size: 11px; fill: rgb(0, 0, 0); fill-opacity: 1; white-space: pre;">y1</text><g class="layers" style="opacity: 1;"><g class="legendfill"/><g class="legendlines"><path class="js-line" d="M5,0h30" style="fill: none; stroke: rgb(255, 0, 0); stroke-opacity: 1; stroke-width: 1px;"/></g><g class="legendsymbols"><g class="legendpoints"/></g></g><rect class="legendtoggle" x="0" y="-9.5" width="51.625" height="19" style="fill: rgb(0, 0, 0); fill-opacity: 0;"/></g></g></g><rect class="scrollbar" rx="20" ry="3" width="0" height="0" style="fill: rgb(128, 139, 164); fill-opacity: 1;" x="0" y="0"/></g><g class="g-gtitle"/><g class="g-xtitle"/><g class="g-ytitle"/></g></svg>